<?xml version="1.0" encoding="UTF-8" standalone="no"?>
<svg
   role="img"
   viewBox="2.5 2.5 5 5"
   version="1.1"
   id="svg4385"
   sodipodi:docname="github.svg"
   inkscape:export-filename="github.svg"
   inkscape:export-xdpi="96"
   inkscape:export-ydpi="96"
   width="10"
   height="10"
   inkscape:version="1.2 (dc2aedaf03, 2022-05-15)"
   xmlns:inkscape="http://www.inkscape.org/namespaces/inkscape"
   xmlns:sodipodi="http://sodipodi.sourceforge.net/DTD/sodipodi-0.dtd"
   xmlns="http://www.w3.org/2000/svg"
   xmlns:svg="http://www.w3.org/2000/svg"
   xmlns:rdf="http://www.w3.org/1999/02/22-rdf-syntax-ns#"
   xmlns:cc="http://creativecommons.org/ns#"
   xmlns:dc="http://purl.org/dc/elements/1.1/">
  <defs
     id="defs4389" />
  <sodipodi:namedview
     id="namedview4387"
     pagecolor="#000000"
     bordercolor="#000000"
     borderopacity="0"
     inkscape:showpageshadow="false"
     inkscape:pageopacity="0"
     inkscape:pagecheckerboard="true"
     inkscape:deskcolor="#d1d1d1"
     showgrid="false"
     showborder="false"
     borderlayer="false"
     inkscape:zoom="34.875"
     inkscape:cx="6.1075269"
     inkscape:cy="2.8387097"
     inkscape:window-width="1920"
     inkscape:window-height="1017"
     inkscape:window-x="-8"
     inkscape:window-y="-8"
     inkscape:window-maximized="1"
     inkscape:current-layer="svg4385" />
  <title
     id="title4381">GitHub</title>
  <path
     d="m 5,2.5 c -1.38125,0 -2.5,1.1477957 -2.5,2.5634744 0,1.132842 0.71625,2.093504 1.709375,2.432096 0.125,0.02414 0.1708334,-0.055115 0.1708334,-0.1232605 0,-0.060882 -0.00208,-0.2221675 -0.00312,-0.43579 C 3.6816666,7.0911829 3.535,6.5925869 3.535,6.5925869 3.42125,6.2967192 3.256875,6.2176787 3.256875,6.2176787 3.0304166,6.0587433 3.274375,6.0619477 3.274375,6.0619477 3.5254166,6.0798922 3.6572916,6.3259855 3.6572916,6.3259855 3.8802083,6.7179834 4.2425,6.6047634 4.3854167,6.5391814 4.4079166,6.3734098 4.4722916,6.2604033 4.54375,6.1963164 3.9885416,6.1322296 3.405,5.9117708 3.405,4.9295329 c 0,-0.279846 0.096875,-0.5084225 0.2572916,-0.6878657 -0.028125,-0.064728 -0.1125,-0.3253476 0.021875,-0.6784662 0,0 0.209375,-0.068787 0.6875,0.2627561 0.2,-0.057037 0.4125,-0.085236 0.625,-0.086517 0.2124999,0.00128 0.4249999,0.02948 0.625,0.086517 0.475,-0.3315427 0.684375,-0.2627561 0.684375,-0.2627561 0.134375,0.3531186 0.05,0.6137385 0.025,0.6784662 0.159375,0.1794432 0.2562499,0.4080197 0.2562499,0.6878657 0,0.9848014 -0.5843749,1.2016286 -1.1406248,1.2646473 0.0875,0.076904 0.16875,0.2341307 0.16875,0.4742427 0,0.3430785 -0.00312,0.618652 -0.00312,0.7019645 0,0.067291 0.04375,0.1474006 0.171875,0.121765 C 6.7843751,7.1559104 7.5,6.1946075 7.5,5.0634744 7.5,3.6477957 6.380625,2.5 5,2.5"
     id="path4383"
     style="fill:#ffffff;fill-opacity:1;stroke-width:0.210962"
     inkscape:export-filename=".\path4383.svg"
     inkscape:export-xdpi="96"
     inkscape:export-ydpi="96" />
  <metadata
     id="metadata4892">
    <rdf:RDF>
      <cc:Work
         rdf:about="">
        <dc:title>GitHub</dc:title>
      </cc:Work>
    </rdf:RDF>
  </metadata>
</svg>
